<mxfile host="app.diagrams.net" modified="2021-10-21T02:19:58.200Z" agent="5.0 (Macintosh; Intel Mac OS X 10_15_7) AppleWebKit/537.36 (KHTML, like Gecko) Chrome/94.0.4606.81 Safari/537.36" etag="W3Tp6fRezcOVaOml6nQq" version="15.5.2" type="github">
  <diagram id="MX5WM2NwMZcCfddJQDFl" name="Page-1">
    <mxGraphModel dx="1001" dy="596" grid="1" gridSize="10" guides="1" tooltips="1" connect="1" arrows="1" fold="1" page="1" pageScale="1" pageWidth="827" pageHeight="1169" math="0" shadow="0">
      <root>
        <mxCell id="0" />
        <mxCell id="1" parent="0" />
        <mxCell id="FhMZj4eenxWsKzzZs4Am-1" value="«interface»&lt;br&gt;&lt;b&gt;MQAdmin&lt;/b&gt;" style="html=1;" vertex="1" parent="1">
          <mxGeometry x="150" y="80" width="160" height="60" as="geometry" />
        </mxCell>
        <mxCell id="FhMZj4eenxWsKzzZs4Am-16" style="edgeStyle=orthogonalEdgeStyle;rounded=0;orthogonalLoop=1;jettySize=auto;html=1;exitX=0.5;exitY=0;exitDx=0;exitDy=0;entryX=0.5;entryY=1;entryDx=0;entryDy=0;endArrow=blockThin;endFill=0;" edge="1" parent="1" source="FhMZj4eenxWsKzzZs4Am-2" target="FhMZj4eenxWsKzzZs4Am-1">
          <mxGeometry relative="1" as="geometry" />
        </mxCell>
        <mxCell id="FhMZj4eenxWsKzzZs4Am-2" value="«interface»&lt;br&gt;&lt;b&gt;MQProducer&lt;/b&gt;" style="html=1;" vertex="1" parent="1">
          <mxGeometry x="150" y="227" width="160" height="60" as="geometry" />
        </mxCell>
        <mxCell id="FhMZj4eenxWsKzzZs4Am-14" style="edgeStyle=orthogonalEdgeStyle;rounded=0;orthogonalLoop=1;jettySize=auto;html=1;entryX=0.5;entryY=1;entryDx=0;entryDy=0;endArrow=blockThin;endFill=0;dashed=1;" edge="1" parent="1" target="FhMZj4eenxWsKzzZs4Am-2">
          <mxGeometry relative="1" as="geometry">
            <mxPoint x="330" y="450" as="sourcePoint" />
            <Array as="points">
              <mxPoint x="230" y="450" />
            </Array>
          </mxGeometry>
        </mxCell>
        <mxCell id="FhMZj4eenxWsKzzZs4Am-8" value="ClientConfig" style="swimlane;fontStyle=0;childLayout=stackLayout;horizontal=1;startSize=26;fillColor=none;horizontalStack=0;resizeParent=1;resizeParentMax=0;resizeLast=0;collapsible=1;marginBottom=0;" vertex="1" parent="1">
          <mxGeometry x="480" y="228" width="160" height="60" as="geometry" />
        </mxCell>
        <mxCell id="FhMZj4eenxWsKzzZs4Am-13" style="edgeStyle=orthogonalEdgeStyle;rounded=0;orthogonalLoop=1;jettySize=auto;html=1;exitX=1;exitY=0.5;exitDx=0;exitDy=0;entryX=0.5;entryY=1;entryDx=0;entryDy=0;endArrow=blockThin;endFill=0;" edge="1" parent="1" source="FhMZj4eenxWsKzzZs4Am-12" target="FhMZj4eenxWsKzzZs4Am-8">
          <mxGeometry relative="1" as="geometry">
            <Array as="points">
              <mxPoint x="560" y="450" />
            </Array>
          </mxGeometry>
        </mxCell>
        <mxCell id="FhMZj4eenxWsKzzZs4Am-12" value="DefaultMQProducer" style="swimlane;fontStyle=0;childLayout=stackLayout;horizontal=1;startSize=26;fillColor=none;horizontalStack=0;resizeParent=1;resizeParentMax=0;resizeLast=0;collapsible=1;marginBottom=0;" vertex="1" parent="1">
          <mxGeometry x="334" y="420" width="160" height="60" as="geometry" />
        </mxCell>
      </root>
    </mxGraphModel>
  </diagram>
</mxfile>
